<svg width="14" height="15" viewBox="0 0 14 15" fill="none" xmlns="http://www.w3.org/2000/svg">
<path d="M13.918 5.80859L12.5234 1.65234C12.3594 1.13281 11.8672 0.75 11.293 0.75H2.67969C2.10547 0.75 1.61328 1.13281 1.44922 1.65234L0.0546875 5.80859C0 5.94531 0 6.08203 0 6.21875V13.4375C0 14.1758 0.574219 14.75 1.3125 14.75H12.6875C13.3984 14.75 14 14.1758 14 13.4375V6.21875C14 6.08203 13.9727 5.94531 13.918 5.80859ZM12.6055 6H7.65625V2.0625H11.293L12.6055 6ZM2.67969 2.0625H6.34375V6H1.36719L2.67969 2.0625ZM1.3125 13.4375V7.3125H12.6875V13.4375H1.3125Z" fill="#828282"/>
</svg>
