<svg width="14" height="11" viewBox="0 0 14 11" fill="none" xmlns="http://www.w3.org/2000/svg">
<path d="M12.6875 0.5H1.3125C0.574219 0.5 0 1.10156 0 1.8125V9.6875C0 10.4258 0.574219 11 1.3125 11H12.6875C13.3984 11 14 10.4258 14 9.6875V1.8125C14 1.10156 13.3984 0.5 12.6875 0.5ZM12.6875 1.8125V2.93359C12.0586 3.45312 11.0742 4.21875 8.99609 5.85938C8.53125 6.21484 7.62891 7.08984 7 7.0625C6.34375 7.08984 5.44141 6.21484 4.97656 5.85938C2.89844 4.21875 1.91406 3.45312 1.3125 2.93359V1.8125H12.6875ZM1.3125 9.6875V4.62891C1.91406 5.12109 2.81641 5.83203 4.15625 6.89844C4.75781 7.36328 5.82422 8.40234 7 8.375C8.14844 8.40234 9.1875 7.36328 9.81641 6.89844C11.1562 5.83203 12.0586 5.12109 12.6875 4.62891V9.6875H1.3125Z" fill="#828282"/>
</svg>
