<svg width="14" height="15" viewBox="0 0 14 15" fill="none" xmlns="http://www.w3.org/2000/svg">
<path d="M14 7.77734C14 7.42188 13.7812 7.09375 13.4531 6.95703L11.293 6L13.4531 5.07031C13.7812 4.93359 14 4.60547 14 4.25C14 3.92188 13.7812 3.59375 13.4531 3.45703L7.49219 0.859375C7.16406 0.722656 6.80859 0.722656 6.48047 0.859375L0.519531 3.45703C0.191406 3.59375 0 3.92188 0 4.25C0 4.60547 0.191406 4.93359 0.519531 5.07031L2.67969 6L0.519531 6.95703C0.191406 7.09375 0 7.42188 0 7.77734C0 8.10547 0.191406 8.43359 0.519531 8.57031L2.67969 9.5L0.519531 10.457C0.191406 10.5938 0 10.9219 0 11.2773C0 11.6055 0.191406 11.9336 0.519531 12.0703L6.48047 14.668C6.61719 14.7227 6.83594 14.75 6.97266 14.75C7.16406 14.75 7.32812 14.7227 7.49219 14.668L13.4531 12.0703C13.7812 11.9336 13.9727 11.6055 13.9727 11.2773C13.9727 10.9219 13.7812 10.5938 13.4531 10.457L11.293 9.5L13.4531 8.57031C13.7812 8.43359 14 8.10547 14 7.77734ZM7 2.08984L12.0312 4.27734L7 6.46484L1.94141 4.25L7 2.08984ZM12.0312 11.2773L7 13.4648L1.94141 11.25L4.34766 10.2383L6.48047 11.168C6.61719 11.2227 6.83594 11.25 7 11.25C7.16406 11.25 7.32812 11.2227 7.49219 11.168L9.625 10.2383L12.0312 11.2773ZM7 9.96484L1.94141 7.75L4.34766 6.73828L6.48047 7.66797C6.61719 7.72266 6.83594 7.75 7 7.75C7.16406 7.75 7.32812 7.72266 7.49219 7.66797L9.625 6.73828L12.0312 7.77734L7 9.96484Z" fill="#828282"/>
</svg>
