<svg width="9" height="15" viewBox="0 0 9 15" fill="none" xmlns="http://www.w3.org/2000/svg">
<path d="M5.25 12.125C5.25 11.6602 4.83984 11.25 4.375 11.25C3.88281 11.25 3.5 11.6602 3.5 12.125C3.5 12.6172 3.88281 13 4.375 13C4.83984 13 5.25 12.6172 5.25 12.125ZM8.75 2.0625C8.75 1.35156 8.14844 0.75 7.4375 0.75H1.3125C0.574219 0.75 0 1.35156 0 2.0625V13.4375C0 14.1758 0.574219 14.75 1.3125 14.75H7.4375C8.14844 14.75 8.75 14.1758 8.75 13.4375V2.0625ZM7.4375 13.2734C7.4375 13.3828 7.35547 13.4375 7.27344 13.4375H1.47656C1.36719 13.4375 1.3125 13.3828 1.3125 13.2734V2.22656C1.3125 2.14453 1.36719 2.0625 1.47656 2.0625H7.27344C7.35547 2.0625 7.4375 2.14453 7.4375 2.22656V13.2734Z" fill="#828282"/>
</svg>
